<mxfile host="app.diagrams.net" agent="Mozilla/5.0 (Windows NT 10.0; Win64; x64; rv:135.0) Gecko/20100101 Firefox/135.0" version="26.0.14">
  <diagram id="FlowDiagram" name="Scoreboard Flow">
    <mxGraphModel dx="1434" dy="746" grid="1" gridSize="10" guides="1" tooltips="1" connect="1" arrows="1" fold="1" page="1" pageScale="1" pageWidth="827" pageHeight="1169" math="0" shadow="0">
      <root>
        <mxCell id="0" />
        <mxCell id="1" parent="0" />
        <mxCell id="2" value="1. User Action on Front End" style="rounded=1;whiteSpace=wrap;html=1;align=center;verticalAlign=middle;fillColor=#dae8fc;strokeColor=#6c8ebf;fontSize=14;fontStyle=1;" parent="1" vertex="1">
          <mxGeometry x="40" y="40" width="280" height="60" as="geometry" />
        </mxCell>
        <mxCell id="3" style="endArrow=classic;rounded=1;" parent="1" source="2" target="4" edge="1">
          <mxGeometry relative="1" as="geometry" />
        </mxCell>
        <mxCell id="4" value="2. Front End Sends POST /api/scoreboard" style="rounded=1;whiteSpace=wrap;html=1;align=center;verticalAlign=middle;fillColor=#d5e8d4;strokeColor=#82b366;fontSize=14;fontStyle=1;" parent="1" vertex="1">
          <mxGeometry x="40" y="140" width="280" height="60" as="geometry" />
        </mxCell>
        <mxCell id="5" style="endArrow=classic;rounded=1;" parent="1" source="4" target="6" edge="1">
          <mxGeometry relative="1" as="geometry" />
        </mxCell>
        <mxCell id="6" value="3. Backend Auth Check (Validate JWT)" style="rounded=1;whiteSpace=wrap;html=1;align=center;verticalAlign=middle;fillColor=#ffe6cc;strokeColor=#d79b00;fontSize=14;fontStyle=1;" parent="1" vertex="1">
          <mxGeometry x="390" y="140" width="280" height="60" as="geometry" />
        </mxCell>
        <mxCell id="7" style="endArrow=classic;rounded=1;" parent="1" source="6" target="8" edge="1">
          <mxGeometry relative="1" as="geometry" />
        </mxCell>
        <mxCell id="8" value="4. Update Score in DB" style="rounded=1;whiteSpace=wrap;html=1;align=center;verticalAlign=middle;fillColor=#f8cecc;strokeColor=#b85450;fontSize=14;fontStyle=1;" parent="1" vertex="1">
          <mxGeometry x="390" y="240" width="280" height="60" as="geometry" />
        </mxCell>
        <mxCell id="9" style="endArrow=classic;rounded=1;" parent="1" source="8" target="10" edge="1">
          <mxGeometry relative="1" as="geometry" />
        </mxCell>
        <mxCell id="10" value="5. Retrieve Top 10" style="rounded=1;whiteSpace=wrap;html=1;align=center;verticalAlign=middle;fillColor=#dae8fc;strokeColor=#6c8ebf;fontSize=14;fontStyle=1;" parent="1" vertex="1">
          <mxGeometry x="40" y="240" width="280" height="60" as="geometry" />
        </mxCell>
        <mxCell id="11" style="endArrow=classic;rounded=1;" parent="1" source="10" target="12" edge="1">
          <mxGeometry relative="1" as="geometry" />
        </mxCell>
        <mxCell id="12" value="6. Return Updated Scoreboard to Front End" style="rounded=1;whiteSpace=wrap;html=1;align=center;verticalAlign=middle;fillColor=#d5e8d4;strokeColor=#82b366;fontSize=14;fontStyle=1;" parent="1" vertex="1">
          <mxGeometry x="20" y="340" width="320" height="60" as="geometry" />
        </mxCell>
        <mxCell id="13" style="endArrow=classic;rounded=1;" parent="1" source="12" target="14" edge="1">
          <mxGeometry relative="1" as="geometry" />
        </mxCell>
        <mxCell id="14" value="7. Front End Refreshes Scoreboard View" style="rounded=1;whiteSpace=wrap;html=1;align=center;verticalAlign=middle;fillColor=#ffe6cc;strokeColor=#d79b00;fontSize=14;fontStyle=1;" parent="1" vertex="1">
          <mxGeometry x="20" y="440" width="320" height="60" as="geometry" />
        </mxCell>
      </root>
    </mxGraphModel>
  </diagram>
</mxfile>
